<svg xmlns="http://www.w3.org/2000/svg" viewBox="0 0 335.88 335.88"><defs><style>.cls-1{fill:#fff;}</style></defs><title>Recurso 1</title><g id="Capa_2" data-name="Capa 2"><g id="Capa_1-2" data-name="Capa 1"><path class="cls-1" d="M167.41,335.88C74.55,335.69-.15,260.22,0,166.75.15,74.46,76.09-.29,169.42,0,261,.28,336.27,76.32,335.88,168.2A168,168,0,0,1,167.41,335.88ZM311.88,168.43A144,144,0,0,0,167.88,24C89.05,23.84,24.23,88.29,24,167.05c-.24,79.5,63.72,144.5,142.5,144.83C246.8,312.22,311.7,248.18,311.88,168.43Z"/><path class="cls-1" d="M132,167.53c0-12.74,0-25.49,0-38.23,0-11.13,9.3-16.61,19-11.18q34.45,19.2,68.85,38.48c4.46,2.48,7.41,5.83,7.45,11.19s-2.82,8.81-7.29,11.29c-23.12,12.78-46.19,25.64-69.33,38.38-9.53,5.24-18.7-.36-18.72-11.32C131.93,193.27,132,180.4,132,167.53Z"/></g></g></svg>